<?xml version="1.0" encoding="utf-8"?>
<!-- Generator: Adobe Illustrator 16.0.0, SVG Export Plug-In . SVG Version: 6.00 Build 0)  -->
<!DOCTYPE svg PUBLIC "-//W3C//DTD SVG 1.1//EN" "http://www.w3.org/Graphics/SVG/1.1/DTD/svg11.dtd">
<svg version="1.1" xmlns="http://www.w3.org/2000/svg" xmlns:xlink="http://www.w3.org/1999/xlink" x="0px" y="0px"
	 width="260.664px" height="112.338px" viewBox="0 0 260.664 112.338" enable-background="new 0 0 260.664 112.338"
	 xml:space="preserve">
<g id="IMG">
</g>
<g id="Soportes">
</g>
<g id="Imagenes">
</g>
<g id="Vectores">
</g>
<g id="Logos">
	<g>
		<g>
			<path fill="#303030" d="M128.15,76.853c0.5,0.338-0.828,2.819-1.986,4.308c-3.15,3.658-5.132,5.143-9.12,7.476
				c-3.644,1.985-13.258,6.96-15.253,0c-1.986-7.476,8.787-23.381,15.914-26.706c2.492-1.332,5.807-1.332,6.973,1.829
				c3.973,11.108-10.286,16.744-17.577,20.228c-0.668,0.156-1.171,0.329-1.822,0.509c-0.67,1.808-0.83,3.466-0.5,4.797
				c0.993,2.158,8.119-0.657,11.277-2.659c4.478-2.808,5.465-3.813,8.45-6.792C125.504,78.349,127.492,76.531,128.15,76.853z
				 M106.433,81.833c7.623-3.155,18.245-8.625,16.246-16.578c-0.497-0.999-2.315,0-3.975,1.322
				C113.898,69.899,109.248,76.025,106.433,81.833z"/>
			<path fill="#303030" d="M125.662,88.637c0,1.15,0.67,1.318,1.323,1.318c2.988,0,11.939-7.133,11.939-7.462
				c0.175-0.167,1.166-0.328,1.166,0.167c0.162,0.997-1.166,1.989-1.166,1.989c-9.114,7.954-11.939,7.458-12.264,7.458
				c-3.982,0.17-3.647-3.647-3.647-3.647c0-12.763,28.848-47.259,29.846-47.259c0.653-0.651,1.161-0.822,1.487-0.822
				c1.164,0,1.494,1.667,1.494,2.319c0,1.493-0.831,2.826-0.831,2.826L143.234,59.95C125.997,82.995,125.662,87.304,125.662,88.637z
				"/>
			<path fill="#303030" d="M163.796,76.853c0.503,0.338-0.824,2.819-1.984,4.308c-3.145,3.658-5.14,5.143-9.114,7.476
				c-3.649,1.985-13.274,6.96-15.263,0c-1.987-7.476,8.783-23.381,15.925-26.706c2.481-1.332,5.801-1.332,6.951,1.829
				c3.988,11.108-10.27,16.744-17.569,20.228c-0.658,0.156-1.16,0.329-1.825,0.509c-0.663,1.808-0.825,3.466-0.492,4.797
				c0.988,2.158,8.117-0.657,11.271-2.659c4.477-2.808,5.472-3.813,8.458-6.792C161.154,78.349,163.14,76.531,163.796,76.853z
				 M142.083,81.833c7.622-3.155,18.228-8.625,16.246-16.578c-0.5-0.999-2.331,0-3.982,1.322
				C149.548,69.899,144.895,76.025,142.083,81.833z M152.027,57.124c-0.824,0-1.331-0.173-1.331-0.173c0-0.154,0-0.154,0.165-0.154
				c4.809-1.326,4.809-6.96,9.78-6.96c1.01,0,1.495,0.487,1.495,1.321C162.137,55.135,154.018,57.124,152.027,57.124z"/>
			<path fill="#303030" d="M175.401,61.263c0.832,0,1.167,0.345,1.167,1.003c0,0.662-0.503,1.493-0.669,1.654
				c-13.263,18.244-14.431,23.543-14.431,23.543c-0.151,0.498-0.151,0.833-0.151,1.172c0,1.15,0.819,1.318,1.319,1.318
				c2.48,0.328,11.938-7.133,11.938-7.462c0.332-0.167,0.667-0.167,0.827-0.167c0.169,0,0.337,0.167,0.337,0.335
				c0,0.653-1.164,1.989-1.164,1.989c-8.625,7.628-11.938,7.458-12.272,7.458c-3.807-0.157-3.635-3.647-3.635-3.647
				c0-5.967,4.635-14.754,11.432-24.539C171.094,62.761,173.574,61.263,175.401,61.263z M175.57,55.792
				c0-2.309,2.652-5.957,4.472-5.957c0.669,0,1.168,0.487,1.168,1.497c0,2.647-2.655,5.96-4.311,5.96c-0.331,0-0.498,0-0.666-0.168
				C175.738,56.95,175.57,56.464,175.57,55.792z"/>
			<path fill="#303030" d="M205.078,42.698c0,1.493-0.834,2.826-0.834,2.826l-10.267,12.604h1.151c0.834,0,2.324,0,2.324,0.987
				c0,1.163-1.49,1.163-2.324,1.163h-2.806c-16.922,22.717-17.417,26.858-17.417,28.358c0,1.15,0.822,1.318,1.32,1.318
				c3.145,0.328,11.949-7.133,11.949-7.462c0.327-0.167,0.657-0.167,0.817-0.167c0.168,0,0.335,0.167,0.335,0.335
				c0,0.997-1.152,1.989-1.152,1.989c-9.793,8.624-11.949,7.458-12.276,7.458c-3.983,0-3.647-3.647-3.647-3.647
				c0-6.626,6.303-17.573,14.257-28.182h-7.138c-0.988,0-2.147,0-2.147-1.163c0-0.987,1.159-0.987,2.147-0.987h8.805
				c12.096-15.922,14.415-17.909,15.077-17.909C204.417,40.219,205.078,41.366,205.078,42.698z"/>
			<path fill="#303030" d="M213.043,76.853c0.489,0.338-0.834,2.819-1.998,4.308c-3.148,3.658-5.141,5.143-9.116,7.476
				c-3.643,1.985-13.261,6.96-15.251,0c-2.001-7.476,8.786-23.381,15.913-26.706c2.487-1.332,5.804-1.332,6.965,1.829
				c3.977,11.108-10.288,16.744-17.583,20.228c-0.651,0.156-1.151,0.329-1.807,0.509c-0.674,1.808-0.839,3.466-0.503,4.797
				c0.983,2.158,8.117-0.657,11.266-2.659c4.482-2.808,5.476-3.813,8.462-6.792C210.382,78.349,212.375,76.531,213.043,76.853z
				 M191.321,81.833c7.624-3.155,18.234-8.625,16.241-16.578c-0.494-0.999-2.328,0-3.977,1.322
				C198.776,69.899,194.135,76.025,191.321,81.833z"/>
			<path fill="#303030" d="M203.253,83.166c0-2.996,2.486-5.975,5.969-5.975c0.66,0,1.656,0.169,2.485,0.49
				c2.155-2.814,4.649-5.138,10.609-14.92c0.164-0.161-0.99-2.482,2.49-1.82c3.985,0.824,5.637,18.077,1.16,24.867
				c2.48,0.165,6.465-1.821,6.966-1.821c0.166,0,0.166,0,0.166,0.156c0,0.677-3.323,3.662-7.308,3.662c-0.319,0-0.825,0-1.151-0.172
				c-4.142,4.476-6.965,4.143-10.285,4.318c-3.973,0.157-7.958-1.667-10.11-5.316C203.586,85.482,203.253,84.496,203.253,83.166z
				 M209.38,79.182c-1.817,0-3.969,2.315-3.969,4.644c0,0.316,0,0.49,0.168,0.823c1.147-1.483,2.976-3.488,4.632-5.303
				C209.882,79.346,209.722,79.182,209.38,79.182z M205.904,85.648c1.325,2.314,5.307,4.138,8.623,4.138
				c3.147,0,5.305-1.49,6.631-3.482c-3.152-1.655-6.467-4.14-9.118-5.965C209.882,82.493,207.563,84.496,205.904,85.648z
				 M213.532,78.679c2.979,1.991,6.134,4.487,8.948,5.817c2.991-5.15,2.159-18.415,0.836-18.579
				c-2.818,4.145-5.808,8.611-8.962,11.93C214.029,78.188,213.862,78.513,213.532,78.679z"/>
			<path fill="#303030" d="M256.643,76.853c0.496,0.338-0.828,2.819-1.994,4.308c-3.146,3.658-5.139,5.143-9.13,7.476
				c-3.642,1.985-13.253,6.96-15.238,0c-1.989-7.476,8.781-23.381,15.91-26.706c2.484-1.332,5.802-1.332,6.972,1.829
				c3.977,11.108-10.284,16.744-17.574,20.228c-0.668,0.156-1.167,0.329-1.831,0.509c-0.667,1.808-0.824,3.466-0.5,4.797
				c0.995,2.158,8.133-0.657,11.283-2.659c4.473-2.808,5.458-3.813,8.444-6.792C253.984,78.349,255.975,76.531,256.643,76.853z
				 M234.92,81.833c7.631-3.155,18.242-8.625,16.246-16.578c-0.493-0.999-2.316,0-3.977,1.322
				C242.379,69.899,237.74,76.025,234.92,81.833z"/>
		</g>
		<g>
			<path fill="#FFFFFF" d="M88.411,95.057c-1.755,1.367-3.532,2.57-5.249,3.617c-6.597,4.013-14.467,7.026-22.569,8.77h195.506
				V95.057H88.411z"/>
		</g>
		<g>
			<g>
				<g>
					<path fill="#303030" d="M123.408,30c0.167-1.309,0.191-2.627,0.069-3.936c-0.06-0.651-0.165-1.313-0.308-1.951
						c-0.156-0.647-0.336-1.282-0.581-1.904c-0.247-0.621-0.525-1.23-0.854-1.811c-0.164-0.298-0.343-0.577-0.536-0.868
						c-0.08-0.116-0.188-0.266-0.286-0.392c-0.104-0.146-0.203-0.278-0.303-0.398c-0.84-1.037-1.826-1.96-2.944-2.697
						c-0.554-0.354-1.136-0.683-1.748-0.945c-0.298-0.128-0.603-0.233-0.912-0.328c-1.968-0.62-3.473-0.83-5.479-0.426
						c-2.807,0.551-1.629,1.416-3.089-1.414c-0.627-1.211-1.348-2.389-2.229-3.424c-1.781-2.091-4.209-3.522-6.817-4.318
						c-1.149-0.354-2.351-0.6-3.552-0.676C89.982,4.234,86.082,5.474,82.925,7.7c-3.244,2.286-1.126,2.181-4.243-0.235
						c-0.747-0.571-1.519-1.082-2.38-1.5c-1.336-0.647-2.96-1.06-4.441-1.147c-4.752-0.331-9.431,1.819-12.687,5.146
						c-2.109,2.147-3.548,5.067-4.068,7.969c-0.262,1.464-0.293,2.958-0.09,4.463c0.194,1.485,0.61,2.934,1.194,4.309
						c0.305,0.694,0.649,1.363,1.038,2.001c0.342,0.564,0.734,1.117,1.153,1.632c1.578,1.938,3.621,3.355,5.976,4.194
						c3.311,1.182,7.437,0.889,10.607-0.632c1.962-0.946,2.841-1.673,3.233-1.909c0.445-0.277,0.681-0.037,0.968,0.326
						c0.577,0.734,1.161,1.337,1.865,1.928c1.136,1.004,2.446,1.804,3.833,2.395c1.377,0.598,2.836,1.043,4.328,1.322
						c1.487,0.274,2.786,0.334,4.331,0.237c0.771-0.037,1.782-0.168,2.526-0.337c0.391-0.104,0.595-0.158,1.021-0.28
						c0.287-0.095,0.471-0.099,0.701,0.122c0.149,0.135,0.87,1.07,1.032,1.249c0.157,0.167,0.318,0.331,0.484,0.5
						c0.588,0.583,1.184,1.115,1.802,1.64c0.774,0.677,0.086,0.196,0.922,6.125c0.09,0.629,0.46,2.491,0.494,2.757
						c0.052,0.273-0.008,0.442-0.298,0.244c-0.146-0.095-0.939-0.755-1.18-0.944c-0.494-0.375-0.997-0.766-1.499-1.136
						c-0.499-0.372-1.014-0.736-1.532-1.094c-2.198-1.521-4.532-2.891-6.969-4.035c-1.218-0.568-2.466-1.091-3.743-1.543
						c-1.277-0.457-2.547-0.861-3.84-1.226c-1.296-0.354-2.619-0.646-3.971-0.841c-1.348-0.187-2.729-0.258-4.107-0.103
						c-0.695,0.089-1.395,0.222-2.058,0.44c-0.169,0.068-0.327,0.118-0.506,0.189c-0.149,0.06-0.335,0.133-0.491,0.219
						c-0.329,0.164-0.642,0.355-0.939,0.591c-0.581,0.478,3.074-1.285,7.915-0.116c1.627,0.399,3.278,0.7,4.867,1.183
						c1.396,0.426,2.805,0.895,4.177,1.429c4.812,1.852,9.416,4.387,13.228,7.878c1.721,1.583,2.604,2.742,3.062,2.327
						c0.179-0.157,0.102-0.432,0.024-0.635c-0.097-0.257-0.197-0.503-0.286-0.767c-0.271-0.773-0.555-1.538-0.802-2.328
						c-0.269-0.874-0.52-1.765-0.754-2.651c-0.206-0.888-0.397-1.792-0.521-2.716c-0.031-0.223-0.05-0.464-0.074-0.697
						c-0.025-0.37-0.214-2.159,0.621-1.667c0.156,0.104,0.329,0.188,0.497,0.271c1.153,0.566,2.406,0.948,3.683,1.117
						c1.278,0.168,2.589,0.139,3.855-0.076c2.563-0.458,4.967-1.601,6.987-3.24c1.012-0.811,1.921-1.752,2.703-2.802
						c0.772-1.045,1.414-2.209,1.878-3.451C122.922,32.58,123.242,31.295,123.408,30z M121.271,33.37
						c-0.774,2.265-2.217,4.313-4.062,5.895c-1.838,1.583-4.066,2.757-6.462,3.248c-1.192,0.26-2.425,0.331-3.652,0.222
						c-1.204-0.117-2.33-0.49-3.456-1.002c-0.566-0.253-1.113-0.545-1.625-0.884c-0.522-0.328-1.044-0.698-1.522-1.076
						c-0.493-0.381-0.925-0.769-1.35-1.214c-0.308-0.341-1.208-1.264-0.67-1.564c0.317-0.178,0.584-0.24,0.899-0.4
						c0.329-0.169,0.654-0.313,0.97-0.507c0.644-0.373,1.259-0.778,1.835-1.24c0.186-0.146,0.35-0.299,0.509-0.434
						c0.438-0.415,0.813-0.861,1.166-1.341c0.356-0.491,0.65-1.004,0.853-1.68c0.088-0.3-0.051-0.324-0.171-0.064
						c-0.067,0.14-0.157,0.318-0.24,0.469c-0.201,0.361-0.416,0.691-0.661,1.012c-0.958,1.271-2.258,2.118-3.703,2.76
						c-0.649,0.288-1.33,0.538-1.994,0.739c-0.904,0.256-1.814,0.436-2.729,0.582c-1.596,0.246-3.24,0.274-4.845,0.125
						c-1.621-0.163-3.258-0.545-4.8-1.134c-1.335-0.489-2.887-1.441-4.013-2.297c-0.563-0.447-1.096-0.91-1.584-1.438
						c-0.485-0.533-0.954-1.089-1.387-1.668c-0.439-0.582-0.776-1.169-1.143-1.798c-0.092-0.151-0.171-0.303-0.25-0.458
						c-0.175-0.322-0.328-0.667-0.464-1.019c-0.039-0.106-0.105-0.393-0.198-0.458c-0.122-0.082-0.203,0.046-0.194,0.169
						c0.009,0.167,0.072,0.325,0.13,0.49c0.076,0.204,0.121,0.339,0.204,0.528c0.301,0.712,0.708,1.394,1.037,2.099
						c0.202,0.401,0.301,0.878,0.036,1.27c-0.275,0.394-0.62,0.64-1.021,0.888c-0.785,0.486-1.637,0.855-2.509,1.142
						c-0.545,0.177-1.109,0.298-1.672,0.405c-1.963,0.361-4.038,0.307-5.998-0.107c-1.318-0.27-2.563-0.784-3.696-1.511
						c-2.257-1.434-4.04-3.598-5.208-6.052c-0.579-1.23-1.004-2.538-1.232-3.884c-0.964-5.592,1.915-10.598,6.271-13.898
						c4.697-3.558,11.702-3.703,16.305,0.303c0.696,0.612,0.987,0.921,1.396,1.361c0.527,0.544,0.785,0.079,1.724-0.709
						c3.062-2.56,7.263-3.932,11.214-3.808c5.247,0.173,9.96,2.668,12.592,7.852c1.402,2.763,0.691,2.359,2.878,1.977
						c2.29-0.407,4.562-0.051,6.595,0.993c0.527,0.27,1.031,0.585,1.502,0.948c0.944,0.701,1.773,1.557,2.485,2.509
						c1.427,1.888,2.242,4.162,2.577,6.538C122.256,28.612,122.051,31.093,121.271,33.37z"/>
				</g>
				<g>
					<path fill="#303030" d="M123.408,30c0.354-2.832,0.061-5.796-1.108-8.412c-1.16-2.617-3.208-4.84-5.756-6.125
						c-0.632-0.336-1.298-0.584-1.987-0.777c-0.692-0.195-1.396-0.357-2.098-0.424c-1.411-0.148-2.857,0.036-4.2,0.507l-0.517,0.18
						c-0.085,0.02-0.177,0.063-0.304,0.02c-0.121-0.048-0.179-0.148-0.227-0.219c-0.175-0.335-0.289-0.655-0.454-0.976
						c-0.295-0.648-0.637-1.291-1.003-1.899c-0.717-1.224-1.573-2.385-2.622-3.355c-2.094-1.923-4.81-3.109-7.591-3.633
						c-2.793-0.519-5.704-0.171-8.351,0.822c-1.32,0.494-2.583,1.151-3.758,1.955c-0.58,0.397-1.139,0.828-1.669,1.289L81.37,9.315
						c-0.072,0.059-0.137,0.126-0.234,0.191c-0.043,0.039-0.094,0.064-0.184,0.1c-0.079,0.034-0.216,0.044-0.321,0
						c-0.184-0.074-0.245-0.164-0.325-0.228l-0.183-0.201c-0.124-0.136-0.241-0.249-0.36-0.374c-0.5-0.495-1.048-0.939-1.616-1.354
						c-0.573-0.406-1.167-0.784-1.79-1.098c-1.249-0.611-2.615-0.973-3.99-1.132c-2.783-0.298-5.624,0.344-8.11,1.592
						c-1.25,0.62-2.43,1.389-3.492,2.304c-1.063,0.91-2.021,1.928-2.781,3.08c-1.529,2.311-2.461,5.055-2.535,7.797
						c-0.068,2.749,0.706,5.525,2.055,7.919c1.342,2.396,3.394,4.376,5.88,5.517c2.467,1.187,5.313,1.425,7.995,0.922
						c1.36-0.246,2.64-0.685,3.871-1.349c0.616-0.315,1.21-0.667,1.779-1.047l0.433-0.284c0.151-0.105,0.279-0.217,0.515-0.343
						c0.172-0.099,0.342-0.144,0.582-0.156c0.239,0,0.479,0.087,0.629,0.185c0.309,0.209,0.425,0.397,0.548,0.536
						c0.435,0.545,0.879,1.023,1.391,1.487l0.374,0.336l0.424,0.351c0.256,0.19,0.518,0.402,0.809,0.583
						c1.13,0.771,2.377,1.36,3.684,1.82c1.314,0.448,2.632,0.783,4.012,0.966c1.354,0.155,2.75,0.146,4.126-0.024
						c0.337-0.039,0.671-0.099,1.004-0.159c0.326-0.056,0.64-0.139,1.001-0.238c0.166-0.053,0.31-0.1,0.561-0.146
						c0.146-0.034,0.336-0.063,0.564,0c0.223,0.048,0.413,0.173,0.517,0.277c0.244,0.227,0.313,0.337,0.438,0.485l0.344,0.42
						c0.422,0.579,0.877,0.989,1.408,1.49l0.776,0.707l0.414,0.354c0.061,0.059,0.138,0.125,0.227,0.233
						c0.106,0.102,0.226,0.276,0.294,0.455c0.116,0.359,0.1,0.529,0.108,0.733l0.02,0.54c0.021,0.343,0.043,0.699,0.068,1.038
						c0.051,0.705,0.121,1.423,0.214,2.12c0.147,1.432,0.407,2.734,0.668,4.238c0.018,0.094,0.02,0.166,0.014,0.291
						c-0.014,0.063-0.033,0.14-0.069,0.25c-0.05,0.09-0.142,0.245-0.3,0.343c-0.151,0.094-0.338,0.116-0.431,0.105
						c-0.12-0.011-0.184-0.028-0.249-0.049c-0.111-0.039-0.179-0.097-0.246-0.122c-0.126-0.083-0.201-0.155-0.271-0.201
						l-0.215-0.178l-0.819-0.668c-0.566-0.454-1.143-0.872-1.708-1.292c-1.147-0.841-2.314-1.643-3.519-2.382
						c-2.396-1.488-4.934-2.779-7.568-3.8c-1.312-0.508-2.668-0.965-4.024-1.37c-1.362-0.406-2.722-0.734-4.117-0.958
						c-1.388-0.21-2.78-0.31-4.16-0.173c-0.683,0.072-1.36,0.206-2.014,0.404c-0.643,0.208-1.255,0.482-1.771,0.889l-0.038,0.033
						c-0.023,0.001-0.014,0.03,0.038-0.058c0.23-0.501-0.594-0.78-0.351-0.628c-0.017,0,0.007,0,0.014,0l0.237-0.048l0.53-0.125
						c0.366-0.074,0.713-0.147,1.075-0.208c0.729-0.118,1.464-0.174,2.203-0.187c1.464-0.044,2.946,0.157,4.347,0.531
						c1.389,0.347,2.798,0.628,4.185,1.043c1.383,0.419,2.746,0.878,4.09,1.4c2.693,1.044,5.302,2.27,7.768,3.773
						c2.455,1.487,4.773,3.263,6.804,5.293c0.511,0.491,0.989,1.053,1.561,1.422c0.135,0.088,0.276,0.133,0.349,0.068
						c0.101-0.063,0.107-0.175,0.063-0.33l-0.337-1.003c-0.479-1.36-0.931-2.718-1.304-4.111c-0.348-1.383-0.682-2.793-0.8-4.235
						c-0.029-0.347-0.061-0.722-0.029-1.086c0.018-0.177,0.039-0.374,0.135-0.544c0.042-0.092,0.127-0.193,0.243-0.229
						c0.126-0.025,0.237,0.006,0.326,0.044c0.63,0.368,1.264,0.651,1.947,0.884c2.688,0.953,5.687,0.848,8.386-0.097
						c2.7-0.947,5.135-2.643,6.955-4.858C121.958,35.605,123.034,32.839,123.408,30z M123.408,30
						c-0.35,2.839-1.42,5.624-3.265,7.832c-1.813,2.228-4.245,3.942-6.962,4.907c-2.696,0.963-5.731,1.108-8.479,0.151
						c-0.678-0.223-1.349-0.521-1.956-0.868c-0.321-0.195-0.441,0.255-0.457,0.581c-0.02,0.351,0,0.7,0.03,1.063
						c0.127,1.419,0.458,2.81,0.833,4.189c0.372,1.387,0.832,2.738,1.332,4.075c0.115,0.339,0.243,0.66,0.362,1.021
						c0.027,0.097,0.05,0.207,0.027,0.33c-0.021,0.128-0.092,0.236-0.193,0.305c-0.107,0.082-0.255,0.097-0.375,0.069
						c-0.112-0.016-0.198-0.069-0.281-0.115c-0.644-0.415-1.11-0.949-1.642-1.44c-2.043-1.987-4.359-3.698-6.813-5.13
						c-2.458-1.453-5.061-2.642-7.733-3.624c-1.343-0.486-2.696-0.927-4.064-1.313c-1.362-0.375-2.761-0.637-4.175-0.966
						c-1.38-0.346-2.759-0.499-4.16-0.453c-0.7,0.025-1.393,0.102-2.08,0.219c-0.344,0.051-0.684,0.141-1.025,0.212l-0.519,0.125
						c-0.092,0.023-0.178,0.044-0.285,0.074c-0.033,0.002-0.063,0.002-0.126,0.002c0.208,0.168-0.699-0.116-0.427-0.679
						c0.093-0.113,0.122-0.129,0.135-0.14l0.07-0.049c0.591-0.511,1.308-0.836,2.021-1.06c0.722-0.243,1.456-0.399,2.191-0.481
						c1.481-0.179,2.967-0.111,4.41,0.107c1.44,0.196,2.87,0.531,4.261,0.923c1.405,0.389,2.777,0.825,4.14,1.326
						c2.729,1.021,5.348,2.291,7.813,3.817c1.239,0.753,2.445,1.561,3.615,2.409c0.588,0.427,1.166,0.859,1.734,1.3l0.85,0.676
						l0.21,0.167l0.151,0.115c0.018,0.014,0.034,0.019-0.008,0c-0.024,0-0.144-0.09-0.417,0.068
						c-0.121,0.066-0.188,0.186-0.224,0.229c-0.017,0.077-0.017,0.094-0.026,0.117c0,0.046,0,0.03,0,0.03
						c-0.245-1.316-0.553-2.831-0.707-4.247c-0.086-0.714-0.166-1.428-0.226-2.165c-0.028-0.364-0.056-0.723-0.072-1.092
						l-0.027-0.537c0-0.163-0.025-0.345-0.035-0.333c0,0.022,0.035,0.045,0,0.013c-0.037-0.03-0.088-0.088-0.142-0.146l-0.418-0.351
						l-0.826-0.722c-0.501-0.481-1.098-1.047-1.54-1.627l-0.337-0.411c-0.1-0.131-0.238-0.305-0.271-0.315
						c-0.023-0.027,0,0.01,0.048,0.01c0.062,0.018,0.072,0,0.027,0.018c-0.086,0.017-0.287,0.08-0.445,0.125
						c-0.351,0.095-0.725,0.206-1.104,0.274c-0.374,0.081-0.731,0.133-1.116,0.186c-1.478,0.182-2.962,0.201-4.444,0.042
						c-1.481-0.185-2.942-0.536-4.331-1.014c-1.397-0.501-2.766-1.159-4.007-2.009c-0.306-0.206-0.615-0.442-0.914-0.677
						l-0.415-0.346l-0.42-0.386c-0.54-0.492-1.091-1.065-1.54-1.649c-0.098-0.145-0.207-0.241-0.194-0.228
						c0,0,0.064,0.036,0.118,0.028c0.062-0.006,0.058-0.006,0.072-0.02c-0.091,0.039-0.236,0.152-0.389,0.254l-0.452,0.31
						c-0.62,0.416-1.273,0.778-1.927,1.113c-1.316,0.695-2.773,1.18-4.24,1.446c-2.928,0.536-6.08,0.254-8.796-1.079
						c-1.349-0.637-2.6-1.494-3.684-2.531c-0.278-0.26-0.539-0.52-0.787-0.818c-0.142-0.146-0.245-0.272-0.37-0.413
						c-0.121-0.149-0.229-0.289-0.345-0.443c-0.234-0.293-0.436-0.6-0.658-0.924c-0.184-0.294-0.386-0.636-0.568-0.953
						c-0.734-1.304-1.274-2.677-1.624-4.133c-0.356-1.444-0.529-2.917-0.473-4.42c0.137-2.99,1.167-5.878,2.851-8.306
						c0.83-1.23,1.86-2.302,2.998-3.242c1.146-0.925,2.372-1.727,3.707-2.363c2.641-1.27,5.636-1.876,8.563-1.53
						c1.465,0.179,2.885,0.591,4.209,1.265c0.656,0.339,1.27,0.75,1.858,1.176c0.579,0.428,1.145,0.912,1.657,1.433
						c0.138,0.13,0.26,0.274,0.382,0.41l0.17,0.188c0.055,0.052,0.118,0.096,0.094,0.096c-0.012-0.014-0.045-0.014-0.045,0
						c0,0,0.028-0.02,0.045-0.038c0.046-0.039,0.121-0.097,0.185-0.146l0.413-0.35c0.557-0.478,1.137-0.919,1.735-1.313
						c1.214-0.793,2.525-1.457,3.879-1.944c2.731-0.995,5.742-1.282,8.575-0.709c2.83,0.563,5.546,1.833,7.666,3.797
						c1.064,0.989,1.928,2.165,2.651,3.411c0.362,0.624,0.688,1.254,0.997,1.907c0.146,0.332,0.281,0.666,0.436,0.978
						c0.088,0.161,0.177,0.186,0.348,0.12l0.509-0.171c1.377-0.471,2.828-0.652,4.273-0.494c0.718,0.09,1.418,0.252,2.101,0.449
						c0.693,0.194,1.371,0.455,2.012,0.784c2.564,1.326,4.605,3.575,5.757,6.202C123.503,24.196,123.771,27.168,123.408,30z"/>
					<path fill="#303030" d="M121.271,33.37c-1.36,4.002-4.718,7.198-8.666,8.641c-1.98,0.707-4.13,1.016-6.223,0.678
						c-2.096-0.396-4.033-1.381-5.718-2.654c-0.845-0.634-1.639-1.35-2.284-2.216c-0.071-0.111-0.154-0.238-0.182-0.397
						c-0.042-0.134-0.03-0.371,0.125-0.486c0.265-0.184,0.511-0.256,0.747-0.366c0.453-0.23,0.942-0.464,1.374-0.727
						c0.876-0.554,1.755-1.163,2.447-1.919c0.679-0.755,1.315-1.608,1.583-2.571c0.021-0.045,0.026-0.116,0.026-0.132
						c0,0-0.002,0,0.004,0.023c0,0,0.041,0.108,0.147,0.121c0.112,0.015,0.126-0.02,0.131-0.02c0.008-0.008,0.008-0.008,0.008-0.008
						c-0.026,0.043-0.105,0.197-0.15,0.306c-0.128,0.245-0.248,0.471-0.397,0.708c-0.296,0.473-0.612,0.899-0.987,1.301
						c-0.746,0.785-1.656,1.416-2.615,1.902c-1.899,0.999-4.031,1.507-6.145,1.781c-2.134,0.254-4.275,0.188-6.407-0.267
						c-1.063-0.21-2.081-0.52-3.095-0.923c-1.026-0.411-1.961-0.947-2.861-1.542c-0.438-0.29-0.899-0.625-1.307-0.951
						c-0.434-0.365-0.837-0.726-1.216-1.119c-0.729-0.799-1.443-1.596-2.042-2.535c-0.299-0.471-0.559-0.914-0.829-1.388
						c-0.251-0.437-0.544-1.068-0.679-1.5c0,0-0.009-0.017,0,0.015c0.018-0.015,0.062,0.094,0.196,0.149
						c0-0.015-0.076-0.015,0.097,0.034c0.126,0.009,0.212,0,0.301-0.049c0.165-0.078,0.229-0.185,0.246-0.235
						c0.046-0.106,0.01-0.241,0.029-0.113c0.017,0.078,0.022,0.051,0.03,0.103c0.02,0.05,0.034,0.089,0.05,0.152l0.076,0.187
						l0.128,0.333c0.212,0.46,0.445,0.886,0.688,1.366l0.372,0.729c0.14,0.286,0.27,0.632,0.254,1.057
						c-0.011,0.207-0.069,0.432-0.167,0.624c-0.019,0.058-0.049,0.103-0.076,0.146l-0.053,0.085l-0.037,0.042
						c-0.037,0.036-0.072,0.1-0.138,0.172c-0.231,0.28-0.478,0.477-0.727,0.636c-0.126,0.087-0.244,0.163-0.367,0.242
						c-0.106,0.065-0.206,0.132-0.334,0.2c-0.264,0.147-0.507,0.272-0.76,0.387c-0.508,0.244-1.013,0.432-1.543,0.609
						c-2.115,0.658-4.357,0.822-6.531,0.56c-1.091-0.137-2.19-0.354-3.238-0.767c-1.038-0.402-2.029-0.977-2.913-1.616
						c-1.79-1.339-3.222-3.091-4.274-5.016c-1.033-1.925-1.717-4.083-1.848-6.295c-0.136-2.234,0.326-4.484,1.253-6.487
						c0.913-2.016,2.291-3.769,3.884-5.257c0.825-0.729,1.646-1.408,2.592-2c0.94-0.577,1.962-1.039,3.002-1.39
						c4.164-1.393,9.027-0.711,12.497,2.045c0.434,0.339,0.827,0.694,1.215,1.082c0.196,0.195,0.383,0.392,0.563,0.587
						c0.091,0.091,0.185,0.205,0.247,0.255c0.052,0.046,0.063,0.037,0.022,0.037c-0.04,0,0.029-0.01,0.11-0.069
						c0.077-0.056,0.176-0.132,0.268-0.22c0.195-0.165,0.39-0.351,0.606-0.529c0.42-0.324,0.856-0.655,1.316-0.956
						c1.805-1.19,3.834-2.007,5.936-2.46c2.104-0.453,4.273-0.507,6.396-0.148c2.119,0.345,4.17,1.125,5.921,2.359
						c1.772,1.206,3.219,2.864,4.259,4.716c0.259,0.461,0.498,0.944,0.717,1.406c0.233,0.479,0.415,0.989,0.684,1.411
						c0.077,0.094,0.138,0.146,0.227,0.175c0.103,0.009,0.217,0,0.353-0.029l0.77-0.146c0.51-0.111,1.05-0.182,1.575-0.215
						c2.121-0.133,4.278,0.415,6.076,1.526c1.809,1.112,3.259,2.736,4.295,4.574c1.021,1.853,1.565,3.933,1.741,6.029
						C122.207,29.236,121.958,31.382,121.271,33.37z M121.271,33.37c0.678-1.988,0.926-4.134,0.745-6.228
						c-0.191-2.094-0.737-4.171-1.765-6.016c-1.031-1.818-2.504-3.408-4.304-4.492c-1.79-1.065-3.917-1.572-6.008-1.424
						c-0.505,0.038-1.025,0.12-1.544,0.23l-0.773,0.176c-0.115,0.023-0.267,0.052-0.427,0.023c-0.178-0.02-0.314-0.145-0.393-0.266
						c-0.313-0.48-0.494-0.958-0.733-1.425c-0.229-0.473-0.479-0.932-0.747-1.387c-1.046-1.788-2.499-3.349-4.227-4.489
						c-1.725-1.149-3.719-1.852-5.758-2.153c-2.038-0.306-4.152-0.208-6.153,0.279c-2.001,0.466-3.927,1.305-5.618,2.462
						c-0.426,0.292-0.813,0.592-1.203,0.932c-0.194,0.171-0.389,0.332-0.582,0.519c-0.102,0.081-0.205,0.19-0.336,0.279
						c-0.131,0.098-0.291,0.225-0.6,0.245c-0.318,0.02-0.561-0.139-0.693-0.249c-0.143-0.125-0.209-0.222-0.313-0.314
						c-0.177-0.181-0.36-0.374-0.543-0.543c-0.369-0.352-0.753-0.691-1.158-0.986c-1.604-1.213-3.543-1.984-5.534-2.24
						C70.6,6.026,68.546,6.25,66.657,6.898c-0.963,0.319-1.873,0.751-2.711,1.29c-0.836,0.527-1.638,1.198-2.374,1.886
						c-1.476,1.395-2.695,3.053-3.529,4.872c-0.831,1.817-1.232,3.816-1.103,5.806c0.018,0.25,0.04,0.496,0.062,0.733
						c0.039,0.231,0.077,0.535,0.132,0.739c0.078,0.497,0.208,0.982,0.351,1.465c0.284,0.952,0.688,1.883,1.162,2.771
						c0.953,1.766,2.249,3.362,3.843,4.556c1.596,1.218,3.451,1.919,5.462,2.136c2.011,0.25,4.057,0.136,5.982-0.435
						c0.94-0.292,1.857-0.701,2.679-1.23c0.188-0.121,0.351-0.266,0.474-0.395c0.178-0.214,0.158-0.189,0.178-0.32
						c0.006-0.119-0.021-0.269-0.116-0.465L76.8,29.635c-0.234-0.472-0.498-0.96-0.704-1.467c-0.055-0.132-0.104-0.265-0.154-0.4
						l-0.058-0.191c-0.024-0.07-0.046-0.147-0.082-0.221c-0.019-0.078-0.044-0.243-0.051-0.278c0-0.01-0.07-0.271,0.04-0.513
						c0.047-0.103,0.138-0.275,0.362-0.38c0.121-0.056,0.247-0.075,0.405-0.056c0.206,0.056,0.162,0.056,0.185,0.056
						c0.201,0.097,0.284,0.229,0.329,0.297c0.052,0.083,0.069,0.122,0.1,0.182c0.171,0.571,0.32,0.912,0.586,1.405
						c0.242,0.431,0.501,0.903,0.759,1.332c0.261,0.434,0.551,0.825,0.879,1.239c0.303,0.407,0.646,0.785,0.986,1.18
						c0.338,0.37,0.711,0.717,1.08,1.033c0.415,0.34,0.797,0.644,1.227,0.944c0.837,0.582,1.742,1.106,2.66,1.503
						c0.932,0.393,1.918,0.711,2.929,0.944c1.978,0.471,4.1,0.586,6.141,0.381c2.06-0.222,4.104-0.672,5.968-1.587
						c0.911-0.45,1.777-1.016,2.495-1.748c0.354-0.361,0.678-0.768,0.943-1.196c0.145-0.201,0.267-0.438,0.383-0.649
						c0.079-0.128,0.1-0.222,0.22-0.398c0.021-0.021,0.048-0.049,0.086-0.077c0.033-0.022,0.07-0.06,0.216-0.057
						c0.146,0.028,0.211,0.165,0.211,0.19c0.017,0.058,0.017,0.09,0.017,0.12c0,0.117-0.029,0.187-0.043,0.258
						c-0.729,2.136-2.487,3.585-4.305,4.626c-0.468,0.284-0.933,0.506-1.42,0.729c-0.241,0.104-0.505,0.193-0.688,0.3
						c-0.126,0.083-0.051,0.348,0.088,0.557c0.588,0.817,1.367,1.567,2.194,2.188c1.665,1.282,3.554,2.279,5.623,2.695
						c2.057,0.357,4.211,0.085,6.185-0.619C116.529,40.534,119.894,37.372,121.271,33.37z"/>
				</g>
			</g>
		</g>
		<g>
			<path fill="#F7931E" d="M106.309,105.536c-0.41,0.149-1.238,0.392-2.228,0.392c-1.088,0-1.988-0.281-2.701-0.954
				c-0.62-0.592-1.015-1.581-1.015-2.697c0.021-2.153,1.501-3.744,3.927-3.744c0.853,0,1.491,0.187,1.806,0.341l-0.225,0.761
				c-0.386-0.174-0.872-0.309-1.597-0.309c-1.767,0-2.914,1.1-2.914,2.901c0,1.843,1.104,2.932,2.791,2.932
				c0.611,0,1.028-0.087,1.248-0.195v-2.168h-1.476v-0.739h2.383V105.536z"/>
			<path fill="#F7931E" d="M117.082,103.573l-0.747,2.277h-0.971l2.46-7.236h1.13l2.474,7.236h-1l-0.777-2.277H117.082z
				 M119.459,102.841l-0.708-2.08c-0.167-0.465-0.275-0.899-0.378-1.32h-0.019c-0.109,0.432-0.228,0.862-0.361,1.304l-0.711,2.096
				H119.459z"/>
			<path fill="#F7931E" d="M130.536,104.714c0.416,0.26,1.03,0.476,1.673,0.476c0.958,0,1.52-0.501,1.52-1.24
				c0-0.672-0.391-1.061-1.369-1.439c-1.185-0.422-1.909-1.018-1.909-2.055c0-1.127,0.935-1.96,2.339-1.96
				c0.743,0,1.278,0.174,1.603,0.342l-0.262,0.776c-0.235-0.136-0.723-0.342-1.375-0.342c-0.984,0-1.353,0.591-1.353,1.083
				c0,0.679,0.432,1.015,1.437,1.398c1.215,0.475,1.836,1.061,1.836,2.127c0,1.125-0.827,2.086-2.532,2.086
				c-0.706,0-1.455-0.206-1.853-0.462L130.536,104.714z"/>
			<path fill="#F7931E" d="M145.502,99.411h-2.209v-0.797h5.373v0.797h-2.218v6.439h-0.946V99.411z"/>
			<path fill="#F7931E" d="M157.645,98.708c0.473-0.094,1.146-0.152,1.792-0.152c0.993,0,1.646,0.187,2.095,0.595
				c0.359,0.324,0.565,0.823,0.565,1.378c0,0.964-0.599,1.581-1.36,1.846v0.031c0.562,0.196,0.895,0.707,1.062,1.463
				c0.236,1.007,0.414,1.714,0.56,1.981h-0.965c-0.116-0.203-0.284-0.824-0.49-1.723c-0.206-1.002-0.597-1.378-1.445-1.404h-0.885
				v3.126h-0.928V98.708z M158.572,102h0.961c0.995,0,1.641-0.542,1.641-1.365c0-0.933-0.684-1.342-1.672-1.355
				c-0.459,0-0.773,0.046-0.93,0.085V102z"/>
			<path fill="#F7931E" d="M177.784,102.16c0,2.494-1.522,3.819-3.365,3.819c-1.918,0-3.256-1.48-3.256-3.69
				c0-2.291,1.429-3.794,3.367-3.794C176.501,98.495,177.784,100.006,177.784,102.16z M172.169,102.276
				c0,1.544,0.832,2.934,2.304,2.934c1.484,0,2.324-1.362,2.324-3.009c0-1.44-0.758-2.944-2.309-2.944
				C172.932,99.257,172.169,100.689,172.169,102.276z"/>
			<path fill="#F7931E" d="M187.169,105.85v-7.236h1.021l2.328,3.663c0.538,0.849,0.945,1.603,1.293,2.355l0.029-0.011
				c-0.094-0.969-0.11-1.843-0.11-2.976v-3.031h0.876v7.236h-0.947l-2.296-3.674c-0.51-0.804-0.992-1.626-1.347-2.416l-0.03,0.011
				c0.038,0.917,0.063,1.783,0.063,2.995v3.083H187.169z"/>
			<path fill="#F7931E" d="M208.6,102.16c0,2.494-1.517,3.819-3.365,3.819c-1.915,0-3.256-1.48-3.256-3.69
				c0-2.291,1.429-3.794,3.367-3.794C207.32,98.495,208.6,100.006,208.6,102.16z M202.979,102.276c0,1.544,0.833,2.934,2.313,2.934
				c1.485,0,2.323-1.362,2.323-3.009c0-1.44-0.755-2.944-2.313-2.944C203.759,99.257,202.979,100.689,202.979,102.276z"/>
			<path fill="#F7931E" d="M224.089,102.676c-0.045-1.013-0.126-2.231-0.096-3.135h-0.041c-0.251,0.861-0.555,1.756-0.921,2.748
				l-1.273,3.521h-0.708l-1.174-3.445c-0.349-1.017-0.631-1.958-0.842-2.823h-0.014c-0.024,0.904-0.079,2.123-0.147,3.208
				l-0.193,3.101h-0.886l0.512-7.236h1.189l1.23,3.495c0.297,0.903,0.544,1.692,0.739,2.453h0.022
				c0.184-0.741,0.446-1.536,0.769-2.453l1.288-3.495h1.194l0.446,7.236h-0.912L224.089,102.676z"/>
			<path fill="#F7931E" d="M236.834,96.963l-1.368,1.266h-0.773l1-1.266H236.834z M235.735,98.614v7.236h-0.939v-7.236H235.735z"/>
			<path fill="#F7931E" d="M246.703,103.573l-0.745,2.277h-0.972l2.465-7.236h1.125l2.467,7.236h-1.005l-0.756-2.277H246.703z
				 M249.079,102.841l-0.704-2.08c-0.169-0.465-0.271-0.899-0.373-1.32h-0.033c-0.095,0.432-0.217,0.862-0.366,1.304l-0.701,2.096
				H249.079z"/>
		</g>
		<g>
			<path fill="#303030" d="M3.724,89.669c0-0.69,0.347-1.032,1.033-1.215c4.84-1.208,5.189,7.955,5.877,8.295
				c7.099,5.88,22.136,8.646,33.543,8.646c22.822,0,53.245-12.962,53.245-38.896c0-11.403-6.405-20.219-18.332-21.264
				c-5.532,0-9.851,0.178-14.518,4.325c-2.241,1.91-2.76,7.269-3.459,11.583c4.842-7.604,8.819-13.304,8.819-13.304
				c0.518-1.047,1.031-1.22,1.551-1.22c1.219,0,1.903,2.081,1.903,2.94c0,1.386-0.685,2.596-0.685,2.596L61.813,68.24
				C46.089,90.71,45.56,99.005,45.56,100.035c0,1.393-0.863,1.73-1.383,1.73c-1.389,0-1.56-0.684-1.56-1.386
				c0-7.436,8.131-23.153,16.418-35.953c0-3.449,0.342-13.144,4.502-16.586c5.015-4.337,10.551-5.026,16.245-4.682
				c12.112,0.701,22.648,8.823,22.648,23.341c0,27.659-33.534,41.487-57.391,41.487c-7.088,0-14.174-1.048-20.745-2.927
				C18.242,104.014,3.724,97.964,3.724,89.669z"/>
		</g>
	</g>
</g>
<g id="TXT">
</g>
<g id="Guias">
</g>
</svg>
