<?xml version="1.0" encoding="utf-8"?>
<!-- Generator: Adobe Illustrator 16.0.0, SVG Export Plug-In . SVG Version: 6.00 Build 0)  -->
<!DOCTYPE svg PUBLIC "-//W3C//DTD SVG 1.1//EN" "http://www.w3.org/Graphics/SVG/1.1/DTD/svg11.dtd">
<svg version="1.1" xmlns="http://www.w3.org/2000/svg" xmlns:xlink="http://www.w3.org/1999/xlink" x="0px" y="0px"
	 width="287.331px" height="110px" viewBox="0 0 287.331 110" enable-background="new 0 0 287.331 110" xml:space="preserve">
<g id="IMG">
</g>
<g id="Soportes">
</g>
<g id="Imagenes">
</g>
<g id="Vectores">
	<g>
		<polygon fill="#F7931E" points="271.073,107.667 4.667,107.667 4.667,15.424 15.673,3.728 17.129,5.099 6.667,16.217 
			6.667,105.667 270.371,105.667 282.291,96.124 283.541,97.685 		"/>
	</g>
	<g>
		<path fill="#F7931E" d="M141.582,107.667c-0.824,0-1.481-0.13-1.955-0.664c-1.348-1.522-0.848-4.833-0.365-8.103
			c0.389-2.63,0.791-5.315,0.065-6.262c-0.145-0.189-0.332-0.274-0.589-0.304c-0.534-0.066-0.912,0.035-1.159,0.282
			c-0.781,0.78-0.498,3.201-0.223,5.537c0.402,3.432,0.859,7.323-1.376,9.112c-0.534,0.427-1.028,0.537-1.464,0.322
			c-1.172-0.575-1.187-3.319-1.113-7.749c0.045-2.734,0.106-6.479-0.575-6.995c-0.076-0.058-0.113-0.064-0.113-0.064
			c-0.55,0.325-0.818,4.185-0.978,6.491c-0.266,3.835-0.48,6.231-1.21,7.179c-0.161,0.208-0.651,0.841-1.263,0.623
			c-0.904-0.322-0.938-2.118-0.801-6.79c0.073-2.523,0.197-6.747-0.405-7.167c-0.023,0.001-0.053,0.009-0.097,0.042
			c-0.572,0.432-0.845,2.813-1.085,4.914c-0.468,4.083-0.963,8.73-3.946,8.561c-0.578-0.029-1.057-0.272-1.384-0.703
			c-1.11-1.458-0.349-4.889,0.388-8.207c0.389-1.752,1.04-4.684,0.623-5.03c-1.264,0.095-2.162,4.829-2.756,7.962
			c-0.807,4.253-1.284,6.474-2.5,6.495c-0.592-0.012-1.087-0.18-1.475-0.563c-1.055-1.043-1.042-3.332-1.029-5.545
			c0.011-1.985,0.024-4.236-0.875-4.32c-0.604,0.103-1.524,3.546-1.967,5.201c-0.688,2.574-1.143,4.176-1.789,4.669
			c-0.489,0.371-0.885,0.311-1.13,0.196c-0.966-0.455-1.117-2.538-1.251-5.913c-0.047-1.178-0.091-2.291-0.207-2.971
			c-0.36-2.121-1.315-3.571-1.79-3.601c-0.114,0.003-0.39,0.284-0.59,0.954c-0.118,0.394-0.256,1.393-0.417,2.55
			c-0.65,4.685-1.315,8.627-2.875,9.417c-0.409,0.209-0.856,0.194-1.292-0.042c-1.084-0.584-0.796-2.557-0.432-5.053
			c0.346-2.367,0.776-5.313-0.455-5.652c-1.23-0.341-2.461,3.522-3.271,6.079c-0.858,2.713-1.344,4.139-2.148,4.363
			c-0.695,0.193-1.274,0.104-1.72-0.266c-1.192-0.989-0.955-3.704-0.726-6.329c0.111-1.268,0.278-3.183,0.006-3.489
			c-0.095-0.019-0.17,0.008-0.233,0.045c-0.729,0.433-1.19,3.017-1.561,5.094c-0.515,2.887-0.96,5.38-2.276,5.693
			c-0.651,0.156-1.091-0.056-1.345-0.261c-1.074-0.864-1.031-3.303-0.985-5.886c0.028-1.574,0.07-3.952-0.409-4.256
			c-0.223-0.142-0.321-0.101-0.358-0.084c-0.693,0.292-1.229,2.849-1.62,4.715c-0.618,2.951-1.146,5.493-2.706,5.223
			c-0.16-0.028-0.296-0.133-0.365-0.28c-1.038-2.216-0.978-4.366-0.929-6.16c0.062-2.29-0.013-3.009-1.143-3.009
			c-0.008,0-0.016,0-0.024,0c-1.162,0-1.759,4.033-2.081,6.251c-0.373,2.572-0.543,3.705-1.344,3.746
			c-0.567,0.029-1.053-0.159-1.452-0.52c-1.15-1.039-1.271-3.464-1.389-5.799c-0.066-1.316-0.174-3.477-0.632-3.718
			c-0.287,0.393-0.625,2.044-0.852,3.161c-0.409,2.006-0.832,4.079-1.612,4.966c-0.401,0.455-0.765,0.461-1,0.383
			c-0.747-0.242-0.896-1.473-1.135-3.979c-0.117-1.225-0.429-4.492-0.989-4.492c0,0-0.001,0-0.002,0
			c-1.704,0-2.215,2.871-2.667,5.366c-0.364,2.011-0.651,3.608-1.567,4.074c-0.248,0.125-0.655,0.226-1.189-0.031
			c-1.667-0.807-1.492-3.552-1.337-5.95c0.086-1.343,0.217-3.459-0.31-3.459c-0.006,0-0.012,0-0.019,0
			c-0.495,0-0.828,2.219-1.027,3.534c-0.398,2.621-0.849,5.607-2.85,5.719c-0.401,0.028-0.763-0.103-1.024-0.379
			c-0.767-0.812-0.558-2.662-0.315-4.808c0.183-1.614,0.458-4.051-0.201-4.255c-0.389-0.12-0.604-0.028-0.731,0.051
			c-0.84,0.525-1.187,2.767-1.493,4.744c-0.41,2.644-0.796,5.141-2.42,5.348c-0.821,0.105-1.45-0.076-1.867-0.539
			c-0.964-1.07-0.448-3.274,0.098-5.608c0.379-1.62,0.851-3.637,0.386-4.223c-0.059-0.074-0.171-0.172-0.471-0.172
			c-0.447,0-0.784,0.121-1.031,0.369c-0.728,0.732-0.716,2.573-0.706,4.196c0.015,2.316,0.03,4.71-1.969,4.882
			c-0.652,0.061-1.181-0.112-1.574-0.498c-0.955-0.938-0.818-2.951-0.687-4.898c0.117-1.726,0.25-3.681-0.557-3.795
			c-0.235-0.033-0.348,0.033-0.422,0.095c-0.564,0.46-0.674,2.242-0.771,3.814c-0.126,2.046-0.256,4.163-1.319,5.035
			c-0.405,0.332-0.905,0.46-1.479,0.383c-1.933-0.262-1.623-3.426-1.35-6.217c0.105-1.076,0.247-2.521,0.105-2.961
			c-2.041,0.302-2.064,1.65-1.929,3.976c0.111,1.902,0.237,4.059-1.868,4.965c-0.774,0.333-1.404,0.321-1.872-0.034
			c-1.101-0.836-0.779-3.212-0.438-5.728c0.161-1.192,0.405-2.993,0.165-3.307c-0.534-0.079-0.995-0.012-1.338,0.244
			c-0.869,0.652-1.036,2.265-1.197,4.058c-0.222,2.461-0.474,5.009-2.861,5.009c-0.016,0-0.032,0-0.049,0
			c-0.664,0-1.144,0.004-1.427-0.431c-0.716-1.1,0.174-3.082,1.206-5.516c1.162-2.742,2.479-5.79,1.053-6.662
			c-0.643,0.092-1.589,3.541-2.154,5.583c-1.211,4.375-2.053,7.059-3.523,7.22c-1.66,0.181-2.717-0.106-3.233-0.898
			c-1.021-1.565,0.601-4.368,2.17-7.082c0.692-1.197,1.737-3.004,1.606-3.415c-0.458,0.087-2.048,2.326-3.208,3.961
			c-2.346,3.304-5.005,7.049-7.492,7.351c-0.736,0.09-1.409-0.124-1.999-0.632c-0.313-0.27-0.475-0.624-0.466-1.021
			c0.029-1.449,2.41-3.344,5.167-5.537c2.303-1.832,5.169-4.112,5.15-5.26c-0.002-0.108-0.031-0.252-0.244-0.41
			c-0.914-0.68-2.012,0.399-3.711,2.253c-1.635,1.783-3.5,3.798-5.676,3.477c-0.747-0.112-1.183-0.417-1.297-0.909
			c-0.318-1.367,2.371-3.342,6.836-6.434c1.567-1.084,3.502-2.424,3.829-2.892c-0.041-0.201-0.111-0.327-0.209-0.375
			c-0.569-0.275-2.343,0.758-3.767,1.588c-2.157,1.26-4.387,2.566-5.977,2.058c-0.592-0.188-1.039-0.605-1.329-1.242
			c-0.506-1.111,0.25-2.373,2.076-3.462c0.426-0.254,1.372-0.495,3.006-0.898c2.022-0.5,6.231-1.54,6.402-2.439
			c0.022-0.117-0.142-0.315-0.429-0.519c-0.309-0.217-2.058-0.148-3.334-0.098c-2.933,0.116-6.251,0.246-7.261-1.224
			c-0.384-0.559-0.399-1.262-0.044-2.089c0.845-1.969,4.339-1.502,6.651-1.194c0.523,0.07,0.976,0.131,1.298,0.147
			c2.4,0.125,4.467-0.212,4.707-0.762c0.069-0.159-0.061-0.526-0.632-1.08c-0.641-0.622-3.494-0.703-5.787-0.767
			c-3.764-0.106-6.094-0.232-6.544-1.436c-0.329-0.881,0.616-1.75,0.927-2.036c0.687-0.632,2.416-0.729,5.18-0.833
			c2.632-0.1,5.908-0.225,6.723-1.196c0.138-0.165,0.186-0.341,0.154-0.57c-0.126-0.91-3.386-0.763-5.765-0.656
			c-3.32,0.148-6.458,0.292-7.371-1.196c-0.449-0.732-0.533-1.377-0.248-1.917c0.697-1.32,3.346-1.448,6.413-1.597
			c2.317-0.113,4.943-0.24,5.675-0.997c0.449-0.463,0.552-0.767,0.5-0.897c-0.179-0.445-1.502-0.713-3.933-0.799l-0.296-0.011
			c-1.033-0.042-2.074-0.159-3.081-0.272c-1.172-0.132-2.279-0.257-3.362-0.271c-0.2-0.002-0.379-0.124-0.456-0.31
			c-0.447-1.084-0.261-2.038-0.064-3.047l0.03-0.152c0.033-0.173,0.156-0.316,0.322-0.375c0.935-0.335,2.536-0.237,4.392-0.123
			c2.267,0.138,5.093,0.312,5.772-0.564c0.067-0.086,0.269-0.347,0.046-1.036c-0.438-1.355-1.936-1.419-4.007-1.365
			c-0.295,0.008-0.583,0.02-0.86,0.016c-2.222,0-3.694-0.501-5.555-1.134l-0.529-0.18c-0.202-0.068-0.338-0.256-0.34-0.468
			c-0.008-0.775,0.204-1.717,0.539-2.401c0.08-0.162,0.241-0.269,0.421-0.279c0.309-0.018,0.891,0.004,1.697,0.032
			c2.092,0.075,8.46,0.299,9.003-0.931c0.094-0.212-0.108-0.596-0.555-1.052c-0.523-0.535-2.537-0.535-4.313-0.535
			c-2.57,0-4.997-0.001-5.952-1.189c-0.361-0.449-0.469-1.013-0.323-1.676c0.016-0.074,0.049-0.144,0.096-0.203
			c1.074-1.358,3.692-1.223,6.222-1.093c2.049,0.104,4.168,0.214,4.882-0.513c0.125-0.127,0.287-0.354,0.252-0.848
			c-0.038-0.526-0.219-0.913-0.554-1.181c-1.128-0.902-3.812-0.495-6.179-0.135c-1.81,0.276-3.372,0.513-4.372,0.231
			c-0.166-0.047-0.295-0.175-0.344-0.34c-0.223-0.755-0.138-1.423,0.252-1.986c1.136-1.641,4.599-1.892,7.653-2.113
			c1.289-0.093,2.615-0.189,3.272-0.394c0.004-0.776-0.169-1.306-0.526-1.613c-0.826-0.712-2.719-0.315-4.55,0.069
			c-2.484,0.52-5.053,1.059-6.118-0.813c-0.397-0.699-0.279-1.249-0.11-1.587c0.755-1.511,3.937-2.026,8.35-2.589
			c1.362-0.174,2.865-0.365,3.646-0.586c-1.449-1.662-3.296-1.577-5.406-1.48c-1.36,0.063-2.765,0.127-4.162-0.281
			c-0.46-0.134-1.861-0.543-1.872-1.517c-0.011-1.014,1.55-1.72,2.862-2.134c1.515-0.479,3.236-0.487,4.9-0.494
			c0.893-0.004,1.743-0.007,2.543-0.08c0.027-0.308,0.016-0.683-0.034-0.938c-1.477-1.223-3.587-1.231-5.818-1.24
			c-1.752-0.007-3.565-0.014-5.092-0.661c-0.186-0.079-0.306-0.261-0.305-0.462c0.002-0.647,0.241-1.194,0.709-1.627
			c1.633-1.51,5.798-1.202,8.838-0.975c0.756,0.056,1.434,0.106,1.934,0.116c0.033-0.613-0.101-1.065-0.405-1.375
			c-0.942-0.961-3.53-0.612-5.609-0.331c-2.016,0.271-3.606,0.485-4.311-0.219c-0.187-0.186-0.394-0.522-0.321-1.067
			c0.257-1.932,2.444-1.816,4.201-1.723c0.53,0.028,1.029,0.052,1.485,0.039c0.308-0.012,0.762,0.01,1.282,0.035
			c1.064,0.05,3.278,0.156,3.714-0.282c-0.02-0.805-1.824-0.806-3.141-0.807c-1.291,0-2.311-0.001-2.755-0.514
			c-0.17-0.197-0.24-0.442-0.202-0.711c0.126-0.884,0.461-1.508,1.022-1.908c0.912-0.649,2.39-0.715,4.943-0.221
			c0.271,0.052,0.448,0.314,0.396,0.586c-0.052,0.271-0.312,0.452-0.586,0.396c-2.198-0.425-3.524-0.408-4.173,0.054
			c-0.335,0.239-0.524,0.62-0.612,1.235c0.166,0.083,1.25,0.083,1.967,0.084c1.812,0.001,4.066,0.002,4.162,1.692
			c0.018,0.313-0.09,0.595-0.311,0.818c-0.692,0.698-2.36,0.678-4.472,0.577c-0.485-0.023-0.912-0.041-1.199-0.035
			c-0.499,0.019-1.045-0.011-1.574-0.04c-1.88-0.1-3.03-0.091-3.157,0.856c-0.022,0.169,0.02,0.211,0.036,0.228
			c0.356,0.355,2.083,0.123,3.471-0.065c2.419-0.327,5.162-0.697,6.457,0.622c0.597,0.609,0.811,1.499,0.634,2.647
			c-0.036,0.233-0.231,0.41-0.467,0.423c-0.56,0.03-1.45-0.036-2.484-0.112c-2.695-0.199-6.772-0.502-8.085,0.712
			C6.17,19.893,6.056,20.078,6,20.294c1.273,0.438,2.777,0.443,4.362,0.45c2.375,0.01,4.83,0.02,6.593,1.592
			c0.068,0.061,0.118,0.138,0.145,0.226c0.155,0.5,0.166,1.41,0.023,1.946c-0.053,0.197-0.22,0.343-0.423,0.368
			c-0.965,0.118-2.015,0.122-3.03,0.126c-1.59,0.007-3.234,0.015-4.604,0.447c-1.566,0.495-2.141,1.013-2.163,1.173l0,0
			c0.003,0,0.125,0.265,1.152,0.565c1.236,0.361,2.559,0.301,3.835,0.242c2.377-0.107,4.832-0.221,6.646,2.389
			c0.15,0.217,0.107,0.513-0.1,0.677c-0.576,0.458-2.053,0.665-4.615,0.991c-2.79,0.356-7.006,0.894-7.582,2.044
			c-0.057,0.114-0.109,0.304,0.085,0.646c0.704,1.237,2.91,0.776,5.043,0.329c2.164-0.454,4.209-0.882,5.408,0.153
			c0.655,0.564,0.937,1.46,0.861,2.739c-0.01,0.172-0.108,0.327-0.26,0.41c-0.695,0.379-2.122,0.482-3.928,0.613
			c-2.549,0.185-6.04,0.438-6.903,1.685c-0.169,0.245-0.229,0.52-0.179,0.851c0.84,0.117,2.22-0.093,3.671-0.313
			c2.696-0.41,5.484-0.833,6.953,0.343c0.558,0.447,0.87,1.083,0.927,1.892c0.047,0.664-0.133,1.208-0.536,1.619
			c-1.03,1.049-3.274,0.932-5.647,0.811c-2.105-0.11-4.482-0.23-5.312,0.63c-0.062,0.397,0.053,0.598,0.148,0.717
			c0.655,0.815,3.159,0.815,5.172,0.816c2.259,0,4.21,0,5.027,0.836c0.78,0.797,1.035,1.522,0.755,2.155
			c-0.753,1.707-5.329,1.689-9.954,1.526c-0.536-0.019-0.992-0.035-1.304-0.038c-0.157,0.405-0.267,0.886-0.304,1.327l0.178,0.061
			c1.784,0.607,3.202,1.113,5.27,1.081c0.256,0,0.523-0.008,0.796-0.015c1.905-0.053,4.283-0.116,4.985,2.057
			c0.256,0.791,0.186,1.449-0.207,1.957c-1.003,1.294-3.861,1.119-6.624,0.95c-1.432-0.087-2.905-0.178-3.73-0.006
			c-0.145,0.747-0.248,1.373-0.067,2.022c1.024,0.034,2.082,0.153,3.109,0.269c0.99,0.111,2.013,0.227,3.009,0.267l0.292,0.011
			c2.182,0.077,4.352,0.25,4.825,1.425c0.233,0.578-0.005,1.24-0.708,1.966c-1.008,1.041-3.601,1.167-6.346,1.3
			c-2.293,0.111-5.146,0.25-5.577,1.065c-0.108,0.206-0.036,0.518,0.216,0.928c0.604,0.984,3.858,0.837,6.473,0.72
			c3.515-0.16,6.549-0.295,6.8,1.517c0.07,0.504-0.061,0.971-0.377,1.35c-1.099,1.312-4.329,1.435-7.451,1.553
			c-1.822,0.069-4.09,0.155-4.541,0.57c-0.602,0.554-0.699,0.864-0.667,0.951c0.237,0.635,3.617,0.73,5.636,0.787
			c3.444,0.097,5.597,0.216,6.455,1.049c0.844,0.819,1.13,1.558,0.853,2.197c-0.635,1.457-4.181,1.436-5.674,1.362
			c-0.343-0.018-0.824-0.081-1.38-0.155c-1.766-0.235-5.054-0.674-5.6,0.597c-0.318,0.74-0.117,1.032-0.051,1.128
			c0.698,1.015,4.127,0.879,6.397,0.791c2.151-0.084,3.395-0.113,3.952,0.282c0.656,0.465,0.937,0.977,0.833,1.521
			c-0.27,1.421-3.131,2.232-7.145,3.224c-1.187,0.293-2.415,0.596-2.734,0.787c-1.017,0.606-1.992,1.499-1.678,2.188
			c0.172,0.379,0.401,0.602,0.721,0.704c1.158,0.369,3.292-0.872,5.17-1.968c2.042-1.192,3.658-2.133,4.707-1.625
			c0.432,0.209,0.695,0.625,0.781,1.235c0.093,0.662-0.725,1.303-4.268,3.754c-2.13,1.475-6.563,4.542-6.431,5.385l0,0
			c0.005,0,0.101,0.091,0.47,0.146c1.669,0.256,3.326-1.564,4.791-3.163c1.644-1.793,3.345-3.645,5.045-2.38
			c0.416,0.309,0.64,0.723,0.647,1.196c0.027,1.641-2.671,3.787-5.527,6.059c-2.125,1.69-4.771,3.795-4.79,4.774
			c-0.001,0.083,0.018,0.157,0.12,0.245c0.373,0.321,0.775,0.452,1.225,0.396c2.048-0.248,4.681-3.957,6.797-6.936
			c2.225-3.133,3.338-4.623,4.386-4.276c0.271,0.09,0.474,0.282,0.572,0.542c0.3,0.79-0.405,2.072-1.676,4.271
			c-1.217,2.104-2.883,4.987-2.198,6.039c0.356,0.545,1.438,0.549,2.287,0.458c0.903-0.099,1.965-3.938,2.668-6.478
			c0.994-3.591,1.657-5.814,2.713-6.231c0.31-0.121,0.63-0.09,0.926,0.092c2.161,1.322,0.666,4.851-0.654,7.965
			c-0.764,1.803-1.714,4.046-1.289,4.701c0.034,0.051,0.136,0.208,0.604,0.216c1.381-0.008,1.654-1.625,1.898-4.339
			c0.182-2.01,0.369-4.089,1.594-5.008c0.573-0.431,1.317-0.56,2.202-0.386c1.125,0.221,0.889,1.967,0.562,4.382
			c-0.232,1.718-0.584,4.314,0.053,4.797c0.2,0.152,0.585,0.036,0.872-0.088c1.363-0.587,1.387-1.898,1.265-3.988
			c-0.121-2.071-0.271-4.649,2.924-5.043c0.258-0.034,0.495,0.047,0.675,0.222c0.519,0.506,0.432,1.667,0.218,3.845
			c-0.183,1.869-0.489,4.997,0.488,5.129c0.298,0.04,0.523-0.012,0.71-0.165c0.726-0.596,0.848-2.577,0.955-4.324
			c0.125-2.034,0.233-3.791,1.137-4.527c0.328-0.267,0.739-0.374,1.195-0.31c1.726,0.245,1.567,2.588,1.414,4.854
			c-0.111,1.641-0.237,3.501,0.389,4.117c0.114,0.112,0.324,0.253,0.788,0.215c1.004-0.086,1.069-1.592,1.055-3.88
			c-0.012-1.907-0.024-3.88,0.996-4.907c0.438-0.441,1.024-0.665,1.74-0.665c0.676,0,1.056,0.3,1.255,0.551
			c0.765,0.964,0.319,2.868-0.196,5.072c-0.42,1.795-0.943,4.029-0.328,4.711c0.068,0.077,0.279,0.309,0.998,0.216
			c0.876-0.111,1.254-2.549,1.558-4.508c0.372-2.402,0.723-4.671,1.952-5.438c0.454-0.283,0.978-0.336,1.557-0.157
			c1.45,0.449,1.182,2.817,0.899,5.324c-0.178,1.576-0.4,3.538,0.048,4.012c0.042,0.043,0.098,0.081,0.242,0.076
			c1.189-0.067,1.593-2.723,1.917-4.856c0.367-2.419,0.673-4.509,2.145-4.347c1.476,0.164,1.34,2.265,1.197,4.489
			c-0.127,1.979-0.287,4.443,0.775,4.957c0.198,0.096,0.272,0.059,0.3,0.044c0.474-0.242,0.786-1.967,1.037-3.353
			c0.494-2.732,1.109-6.131,3.634-6.172c1.507,0.002,1.736,2.601,2.003,5.381c0.095,0.99,0.231,2.419,0.429,2.965
			c0.583-0.732,1.004-2.794,1.343-4.458c0.512-2.51,0.792-4.013,1.793-3.985c1.438,0.059,1.545,2.202,1.669,4.684
			c0.097,1.932,0.217,4.335,1.06,5.097c0.165,0.149,0.352,0.228,0.578,0.242c0.194-0.419,0.395-1.802,0.559-2.931
			c0.496-3.418,1.102-7.269,3.144-7.189c2.201,0.109,2.148,2.056,2.093,4.117c-0.042,1.587-0.095,3.54,0.678,5.432
			c0.53-0.48,1.049-2.958,1.344-4.364c0.555-2.648,1.034-4.935,2.21-5.431c0.282-0.119,0.734-0.187,1.282,0.161
			c0.908,0.576,0.924,2.32,0.874,5.119c-0.036,2.019-0.08,4.531,0.612,5.089c0.082,0.065,0.21,0.133,0.487,0.067
			c0.679-0.162,1.187-3.011,1.523-4.896c0.49-2.743,0.912-5.111,2.035-5.778c0.336-0.2,0.717-0.239,1.104-0.108
			c0.995,0.332,0.85,1.989,0.631,4.499c-0.178,2.033-0.421,4.817,0.368,5.472c0.067,0.056,0.271,0.225,0.813,0.073
			c0.36-0.215,0.998-2.23,1.463-3.702c1.089-3.439,2.321-7.341,4.489-6.741c2.083,0.575,1.603,3.861,1.179,6.761
			c-0.22,1.504-0.552,3.776-0.083,4.029c0.182,0.097,0.283,0.071,0.365,0.03c1.221-0.619,1.975-6.052,2.337-8.664
			c0.173-1.247,0.31-2.232,0.449-2.698c0.428-1.432,1.103-1.699,1.609-1.666c1.288,0.079,2.36,2.342,2.715,4.431
			c0.126,0.744,0.172,1.888,0.22,3.099c0.065,1.635,0.185,4.661,0.666,5.039c0.007-0.01,0.048-0.03,0.111-0.078
			c0.407-0.31,0.998-2.519,1.429-4.131c1.007-3.765,1.699-6.05,3.027-5.939c1.811,0.17,1.796,2.672,1.781,5.322
			c-0.011,1.913-0.023,4.082,0.732,4.828c0.195,0.193,0.443,0.282,0.755,0.274c0.507-0.264,1.125-3.524,1.534-5.681
			c0.987-5.205,1.771-8.628,3.61-8.772c0.454-0.04,0.733,0.167,0.886,0.344c0.687,0.791,0.313,2.661-0.405,5.899
			c-0.623,2.805-1.397,6.296-0.569,7.384c0.15,0.197,0.353,0.295,0.64,0.31c2.021,0.13,2.504-4.211,2.902-7.676
			c0.349-3.043,0.607-4.941,1.477-5.598c0.261-0.197,0.57-0.274,0.89-0.22c1.378,0.227,1.361,3.105,1.214,8.173
			c-0.061,2.092-0.143,4.892,0.129,5.696c0.039-0.041,0.087-0.096,0.143-0.169c0.598-0.776,0.814-3.89,1.005-6.638
			c0.303-4.359,0.526-6.85,1.599-7.337c0.198-0.09,0.604-0.187,1.094,0.184c1.012,0.768,1.042,3.462,0.97,7.808
			c-0.04,2.436-0.107,6.511,0.554,6.836c0.02,0.008,0.146-0.001,0.399-0.205c1.802-1.441,1.38-5.039,1.008-8.212
			c-0.33-2.808-0.614-5.233,0.51-6.356c0.471-0.471,1.139-0.656,1.983-0.559c0.529,0.063,0.955,0.3,1.267,0.707
			c0.981,1.283,0.586,3.956,0.129,7.051c-0.429,2.902-0.915,6.19,0.125,7.364c0.292,0.329,0.717,0.49,1.279,0.467
			c0.426-0.011,0.733-0.143,0.966-0.416c0.952-1.115,0.524-4.342,0.146-7.188c-0.432-3.253-0.839-6.326,0.411-7.565
			c0.458-0.454,1.086-0.629,1.863-0.518c0.581,0.083,1.032,0.346,1.34,0.784c0.864,1.227,0.395,3.517-0.149,6.169
			c-0.596,2.906-1.271,6.2,0.236,7.3c0.312,0.229,0.507,0.267,0.585,0.229c0.541-0.271,0.567-2.668,0.579-3.692
			c0.006-0.517,0.012-0.964,0.043-1.259c0.076-0.711,0.033-1.604-0.013-2.549c-0.115-2.385-0.245-5.087,1.531-6.208
			c0.505-0.319,0.887-0.19,1.069-0.086c0.938,0.536,0.919,2.704,0.8,6.812c-0.086,2.953-0.216,7.417,0.738,8.013
			c0.049,0.03,0.194,0.121,0.578-0.08c1.765-0.924,1.27-3.609,0.746-6.451c-0.541-2.932-1.1-5.963,0.743-7.654
			c0.483-0.445,0.948-0.582,1.374-0.408c1.052,0.427,1.224,2.556,1.436,6.281c0.162,2.831,0.362,6.353,1.294,7.131
			c0.118,0.099,0.237,0.133,0.385,0.117c1.149-0.141,1.168-3.376,1.183-5.976c0.02-3.444,0.038-6.697,2.093-6.82
			c0.795-0.05,1.443,0.198,1.921,0.729c1.521,1.689,0.826,5.858,0.319,8.903c-0.164,0.984-0.306,1.833-0.3,2.239
			c0.018,1.25,0.457,2.027,1.204,2.134c0.865,0.126,2.099-0.697,2.575-2.242c0.486-1.579,0.474-2.927,0.461-4.354
			c-0.009-1.011-0.018-2.056,0.141-3.254c0.182-1.375,0.647-2.282,1.384-2.694c0.633-0.354,1.415-0.329,2.325,0.074
			c1.357,0.602,1.302,3.32,1.239,6.467c-0.039,1.91-0.091,4.526,0.45,4.968c0.018,0.015,0.049,0.033,0.096,0.032
			c0.325-0.456,0.719-2.766,0.983-4.312c0.666-3.903,1.051-5.641,1.94-5.902c0.188-0.054,0.553-0.086,0.92,0.314
			c0.92,1.004,1.08,3.339,1.25,5.812c0.121,1.769,0.288,4.192,0.836,4.482c0.091,0.047,0.263-0.038,0.357-0.092
			c1.578-0.919,1.236-3.509,0.935-5.794c-0.261-1.981-0.487-3.691,0.442-4.502c0.507-0.441,1.248-0.522,2.265-0.245
			c1.415,0.387,1.505,3.065,1.61,6.166c0.052,1.548,0.139,4.139,0.575,4.393c-0.002-0.005,0.196-0.027,0.636-0.509
			c1.023-1.12,0.76-2.819,0.482-4.619c-0.152-0.983-0.309-1.999-0.26-2.968c0.039-0.781,0.494-2.584,1.59-2.857
			c0.654-0.163,1.28,0.243,1.855,1.207c0.676,1.132,0.653,3.325,0.631,5.446c-0.018,1.71-0.04,3.838,0.44,4.267
			c0.031,0.027,0.063,0.049,0.157,0.04c1.269-0.159,1.33-2.455,1.389-4.675c0.06-2.233,0.115-4.342,1.253-5.329
			c0.93-0.807,1.692-1.053,2.333-0.757c1.058,0.489,1.183,2.251,1.166,3.909c-0.005,0.507-0.061,1.117-0.12,1.763
			c-0.183,1.996-0.433,4.728,0.918,5.079c0.571,0.148,1.015,0.091,1.356-0.173c0.656-0.507,1.017-1.824,1.018-3.708
			c0-0.315-0.045-0.789-0.096-1.343c-0.226-2.457-0.343-4.737,0.516-5.692c0.274-0.306,0.638-0.645,1.05-0.645
			c0.014,0,0.028,0,0.041,0c2.496,0,2.708,3.471,2.812,5.063l0.031,0.537c0.047,0.562,0.044,1.213,0.04,1.857
			c-0.014,2.441,0.089,4.065,1.592,4.102c0.519,0.007,0.895-0.104,1.125-0.378c0.751-0.894,0.264-3.317-0.208-5.666
			c-0.353-1.759-0.718-3.575-0.641-5.042l0.007-0.139c0.129-2.611,0.426-3.6,1.137-3.779c0.673-0.167,1.142,0.604,1.295,0.857
			c0.781,1.291,1.168,4.916,1.355,7.728c0.178,2.685,0.676,5.622,1.083,6.561c0.112-0.266,0.278-0.782,0.467-1.768
			c0.094-0.484,0.157-1.263,0.229-2.164c0.267-3.301,0.571-5.875,1.828-6.483c0.325-0.157,0.856-0.247,1.547,0.213
			c1.45,0.968,1.345,3.742,1.244,6.425c-0.059,1.56-0.14,3.696,0.34,3.964c0.111,0.059,0.401,0.004,0.899-0.332
			c1.131-0.761,1.064-3.239,1.006-5.425c-0.053-1.967-0.099-3.665,0.656-4.451c0.264-0.274,0.613-0.422,1.012-0.428
			c0.476,0.008,0.884,0.149,1.19,0.462c0.784,0.803,0.721,2.433,0.648,4.319c-0.082,2.126-0.175,4.537,1.096,5.292
			c0.168,0.1,0.397,0.205,0.534,0.125c0.773-0.45,0.703-4.045,0.656-6.425c-0.046-2.349-0.086-4.377,0.375-5.219
			c0.23-0.422,0.795-0.687,1.247-0.794c0.328-0.078,0.792-0.122,1.131,0.111c0.683,0.469,0.765,1.985,0.801,5.594
			c0.02,2.012,0.057,5.757,0.648,6.048c0-0.002,0.082-0.009,0.256-0.148c0.826-0.659,0.747-2.741,0.683-4.414
			c-0.038-0.999-0.074-1.942,0.066-2.604c0.413-1.939,1.249-3.052,2.191-2.902c0.92,0.146,1.343,1.425,1.132,3.42
			c-0.033,0.314-0.127,0.756-0.247,1.315c-0.283,1.32-0.871,4.067-0.155,4.625c0.266,0.208,0.512,0.428,0.77,0.306
			c0.566-0.273,0.872-1.965,0.872-4.115v-0.623c0-1.867,0.098-4.688,1.862-5.745c0.767-0.459,1.456-0.527,1.929-0.197
			c1.012,0.706,0.729,2.857,0.286,5.188c-0.055,0.287-0.085,0.53-0.111,0.705c-0.293,1.962-0.017,5.268,0.613,5.635
			c0.084,0.05,0.269-0.089,0.322-0.13c1.244-0.968,1.281-3.045,1.315-5.054c0.023-1.352,0.047-2.749,0.442-3.856
			c0.052-0.147,0.096-0.298,0.139-0.446c0.16-0.553,0.341-1.179,0.932-1.486c0.471-0.244,1.077-0.224,1.91,0.063
			c1.73,0.595,0.425,5.176,0.41,5.222c-0.146,0.448-0.326,0.927-0.509,1.415c-0.545,1.452-1.224,3.26-0.79,4.042
			c0.081,0.146,0.244,0.35,0.726,0.447c0.161,0.03,0.29,0.006,0.415-0.085c0.781-0.576,1.044-3.123,1.201-4.645
			c0.053-0.514,0.101-0.976,0.157-1.334c0.049-0.31,0.083-0.639,0.118-0.971c0.163-1.538,0.364-3.451,2.168-3.499
			c0.629-0.008,0.979,0.254,1.156,0.484c0.648,0.839,0.185,2.437-0.401,4.46c-0.602,2.079-1.351,4.665-0.329,5.496
			c0.176,0.144,0.33,0.213,0.403,0.184c0.629-0.257,0.964-3.222,1.187-5.183c0.361-3.197,0.646-5.188,1.542-5.862
			c0.587-0.442,1.009-0.363,1.26-0.219c0.923,0.528,0.729,2.633,0.307,6.309c-0.2,1.745-0.5,4.358-0.222,4.887
			c0.13,0.021,0.206-0.016,0.267-0.06c0.779-0.567,0.911-3.584,0.974-5.035c0.021-0.469,0.038-0.871,0.066-1.156l0.038-0.455
			c0.197-2.46,0.474-4.089,1.245-4.601c0.621-0.413,1.148-0.499,1.565-0.254c0.812,0.477,0.7,1.916,0.602,3.186l-0.128,1.836
			c-0.089,1.319-0.173,2.544-0.256,3.625c-0.021,0.264-0.059,0.557-0.098,0.859c-0.102,0.784-0.243,1.857,0.064,2.194
			c0.029,0.033,0.109,0.132,0.43,0.123c0.445-0.184,0.66-2.737,0.788-4.263c0.233-2.774,0.475-5.643,1.739-6.558
			c0.577-0.418,0.99-0.337,1.234-0.195c0.863,0.499,0.711,2.596,0.369,5.866c-0.178,1.7-0.51,4.441-0.044,5.441
			c0.002,0,0.005,0,0.007,0c0.421,0,0.759-0.34,1.016-0.588c0.787-0.759,0.819-2.767,0.848-4.439
			c0.012-0.686,0.022-1.389,0.082-1.961c0.017-0.16,0.024-0.437,0.033-0.734c0.052-1.635,0.124-3.888,1.427-3.927
			c0.602-0.013,1.141,0.205,1.522,0.659c0.938,1.114,0.79,3.339,0.58,4.362c-0.021,0.105-0.06,0.265-0.108,0.469
			c-0.75,3.157-0.853,5.06-0.305,5.66c0.086,0.095,0.227,0.195,0.569,0.149c0.825-0.12,1.078-2.975,1.2-4.346
			c0.054-0.612,0.101-1.141,0.173-1.51c0.094-0.485,0.106-1.027,0.118-1.551c0.029-1.267,0.062-2.703,1.362-3.448
			c0.591-0.338,1.004-0.222,1.247-0.067c0.876,0.562,0.781,2.356,0.521,5.247c-0.095,1.053-0.193,2.141-0.114,2.598
			c0.208,1.201,0.478,1.358,0.481,1.359c0.197-0.057,0.813-0.977,1.112-2.328c0.067-0.3,0.064-0.871,0.062-1.475
			c-0.007-1.743-0.017-4.13,1.618-4.508c0.607-0.139,1.082-0.047,1.412,0.278c0.693,0.681,0.399,2.063,0.115,3.399
			c-0.104,0.488-0.258,1.211-0.223,1.458c0.144,0.109,0.269,0.167,0.334,0.142c0.406-0.135,0.779-1.716,0.98-2.565
			c0.153-0.649,0.298-1.264,0.483-1.726c0.103-0.257,0.395-0.381,0.65-0.279c0.256,0.103,0.381,0.394,0.279,0.65
			c-0.157,0.394-0.294,0.972-0.439,1.584c-0.361,1.528-0.702,2.972-1.637,3.284c-0.428,0.144-0.882,0.02-1.348-0.368
			c-0.481-0.401-0.313-1.191-0.058-2.389c0.163-0.762,0.464-2.181,0.163-2.477c-0.068-0.066-0.25-0.072-0.486-0.017
			c-0.856,0.198-0.848,2.203-0.843,3.529c0.003,0.69,0.005,1.323-0.085,1.733c-0.239,1.079-0.988,3.143-2.118,3.143
			c-0.007,0-0.015,0-0.022,0c-1.041,0-1.322-1.686-1.415-2.22c-0.102-0.587-0.007-1.658,0.103-2.878
			c0.117-1.296,0.359-3.999-0.063-4.323c-0.001,0.005-0.07,0.006-0.212,0.087c-0.771,0.442-0.829,1.275-0.859,2.601
			c-0.013,0.565-0.026,1.148-0.136,1.716c-0.062,0.319-0.106,0.823-0.158,1.408c-0.198,2.234-0.444,5.014-2.053,5.247
			c-0.75,0.107-1.202-0.193-1.45-0.465c-1.042-1.14-0.549-3.959,0.07-6.566c0.045-0.19,0.082-0.341,0.102-0.439
			c0.211-1.031,0.237-2.806-0.366-3.522c-0.186-0.22-0.409-0.324-0.728-0.31c-0.24,0.143-0.399,1.135-0.457,2.945
			c-0.01,0.327-0.02,0.601-0.038,0.777c-0.055,0.529-0.065,1.156-0.077,1.819c-0.032,1.867-0.068,3.983-1.153,5.03
			c-0.452,0.437-1.047,0.667-1.753,0.637c-0.281-0.005-0.53-0.123-0.721-0.339c-0.683-0.772-0.528-2.773-0.192-5.976
			c0.172-1.644,0.429-4.096,0.142-4.632c-0.036,0.017-0.09,0.046-0.163,0.1c-0.893,0.646-1.135,3.521-1.329,5.832
			c-0.251,2.979-0.432,5.13-1.749,5.178c-0.512,0.015-0.917-0.133-1.206-0.449c-0.619-0.68-0.458-1.911-0.315-2.998
			c0.037-0.284,0.073-0.559,0.092-0.807c0.083-1.078,0.167-2.299,0.256-3.615l0.128-1.846c0.04-0.505,0.159-2.043-0.112-2.246
			c0.001,0.002-0.139-0.018-0.504,0.225c-0.346,0.23-0.616,1.524-0.802,3.848l-0.04,0.471c-0.026,0.272-0.042,0.657-0.062,1.104
			c-0.114,2.607-0.306,5.013-1.384,5.799c-0.343,0.251-0.753,0.32-1.186,0.202c-1.044-0.286-0.88-2.134-0.442-5.952
			c0.205-1.785,0.544-4.739,0.201-5.299c-0.021,0.022-0.083,0.055-0.173,0.123c-0.617,0.465-0.912,3.077-1.149,5.176
			c-0.387,3.419-0.681,5.538-1.802,5.996c-0.305,0.122-0.796,0.167-1.412-0.333c-1.537-1.249-0.721-4.065-0.001-6.55
			c0.405-1.396,0.908-3.134,0.57-3.571c-0.019-0.025-0.081-0.104-0.338-0.096c-0.866,0.023-1.031,0.999-1.2,2.604
			c-0.037,0.349-0.074,0.695-0.125,1.021c-0.054,0.344-0.1,0.789-0.151,1.282c-0.207,2.009-0.465,4.509-1.603,5.347
			c-0.351,0.259-0.769,0.349-1.205,0.261c-0.658-0.132-1.13-0.449-1.404-0.941c-0.659-1.187,0.046-3.064,0.728-4.879
			c0.178-0.474,0.353-0.939,0.495-1.374c0.452-1.384,0.58-3.757,0.214-3.966c-0.674-0.232-0.982-0.193-1.122-0.12
			c-0.21,0.109-0.313,0.464-0.432,0.876c-0.049,0.167-0.098,0.338-0.158,0.504c-0.339,0.952-0.36,2.208-0.383,3.537
			c-0.038,2.244-0.077,4.563-1.699,5.826c-0.666,0.52-1.187,0.351-1.437,0.205c-1.456-0.851-1.271-5.427-1.09-6.646
			c0.027-0.184,0.076-0.441,0.134-0.744c0.478-2.513,0.53-3.919,0.155-4.181c-0.083-0.056-0.461-0.031-0.906,0.234
			c-1.275,0.765-1.376,3.242-1.376,4.882v0.639c0,1.596-0.115,4.368-1.438,5.006c-0.578,0.277-1.169,0.139-1.882-0.417
			c-1.21-0.943-0.6-3.648-0.177-5.624c0.109-0.509,0.219-0.949,0.247-1.211c0.187-1.772-0.203-2.298-0.289-2.328
			c0,0,0.003,0,0.003,0c-0.132,0-0.706,0.502-1.051,2.123c-0.115,0.54-0.081,1.423-0.044,2.357c0.076,1.997,0.163,4.26-1.059,5.234
			c-0.578,0.461-1.032,0.401-1.307,0.27c-1.102-0.523-1.181-2.979-1.22-6.941c-0.018-1.757-0.044-4.413-0.385-4.794
			c-0.158-0.042-0.804,0.176-0.917,0.355c-0.332,0.608-0.289,2.792-0.251,4.719c0.078,3.964,0.04,6.614-1.152,7.309
			c-0.306,0.179-0.822,0.302-1.547-0.129c-1.782-1.058-1.677-3.784-1.584-6.189c0.059-1.518,0.119-3.087-0.365-3.583
			c-0.075-0.077-0.195-0.174-0.46-0.161c-0.134,0.002-0.225,0.038-0.304,0.121c-0.465,0.484-0.418,2.209-0.377,3.731
			c0.066,2.444,0.14,5.214-1.447,6.282c-0.293,0.197-1.186,0.797-1.944,0.375c-1.016-0.565-0.944-2.467-0.854-4.875
			c0.083-2.182,0.185-4.897-0.8-5.555c-0.238-0.159-0.424-0.208-0.555-0.145c-0.842,0.407-1.119,3.827-1.267,5.664
			c-0.075,0.931-0.14,1.734-0.244,2.273c-0.401,2.083-0.8,2.833-1.486,2.798c-1.429-0.089-1.927-5.927-2.045-7.714
			c-0.246-3.708-0.7-6.429-1.212-7.276c-0.085-0.141-0.154-0.235-0.207-0.297c-0.117,0.271-0.283,0.966-0.372,2.752l-0.007,0.144
			c-0.071,1.341,0.281,3.097,0.622,4.795c0.542,2.699,1.053,5.249-0.006,6.511c-0.432,0.515-1.067,0.757-1.916,0.746
			c-2.597-0.063-2.581-2.848-2.567-5.086c0.003-0.621,0.007-1.208-0.036-1.726l-0.033-0.64c-0.124-1.916-0.377-4.127-1.818-4.127
			c-0.007,0-0.015,0-0.022,0c-0.136,0-0.231,0.214-0.321,0.313c-0.637,0.708-0.403,3.331-0.264,4.848
			c0.054,0.591,0.1,1.141,0.1,1.477c0,2.265-0.474,3.8-1.406,4.521c-0.595,0.459-1.342,0.587-2.219,0.36
			c-2.174-0.564-1.891-3.649-1.664-6.132c0.057-0.625,0.111-1.213,0.116-1.68c0.024-2.355-0.357-2.884-0.586-2.99
			c-0.225-0.105-0.699,0.121-1.258,0.606c-0.805,0.698-0.857,2.682-0.909,4.6c-0.07,2.643-0.143,5.376-2.265,5.641
			c-0.361,0.047-0.688-0.054-0.947-0.286c-0.819-0.73-0.798-2.72-0.774-5.023c0.02-1.891,0.042-4.033-0.49-4.923
			c-0.384-0.645-0.659-0.771-0.755-0.75c-0.334,0.083-0.793,1.151-0.833,1.937c-0.043,0.868,0.105,1.833,0.25,2.766
			c0.302,1.953,0.614,3.973-0.732,5.447c-0.238,0.26-0.96,1.052-1.724,0.771c-1.011-0.373-1.12-2.163-1.226-5.296
			c-0.063-1.886-0.17-5.042-0.874-5.235c-0.454-0.124-1.054-0.219-1.344,0.034c-0.525,0.458-0.313,2.065-0.108,3.618
			c0.342,2.594,0.73,5.535-1.422,6.79c-0.606,0.354-1.058,0.255-1.329,0.112c-0.99-0.525-1.164-2.355-1.366-5.297
			c-0.14-2.042-0.298-4.35-0.943-5.151c-0.433,0.632-0.898,3.355-1.184,5.027c-0.622,3.645-0.908,4.936-1.675,5.108
			c-0.381,0.087-0.737,0.01-1.021-0.222c-0.918-0.75-0.872-3.073-0.817-5.763c0.042-2.071,0.104-5.2-0.645-5.533
			c-0.606-0.27-1.088-0.309-1.431-0.116c-0.44,0.247-0.745,0.922-0.881,1.953c-0.149,1.129-0.141,2.138-0.132,3.114
			c0.014,1.507,0.026,2.93-0.505,4.657c-0.583,1.891-2.157,3.151-3.673,2.938c-1.266-0.182-2.037-1.344-2.062-3.111
			c-0.007-0.495,0.134-1.343,0.313-2.417c0.42-2.52,1.123-6.738-0.076-8.069c-0.272-0.302-0.625-0.426-1.119-0.4
			c-1.12,0.067-1.138,3.261-1.152,5.827c-0.02,3.453-0.038,6.715-2.061,6.963c-0.424,0.054-0.819-0.066-1.148-0.341
			c-1.265-1.057-1.453-4.353-1.651-7.842c-0.11-1.928-0.294-5.153-0.813-5.412c0.001,0.003-0.104,0.018-0.322,0.218
			c-1.435,1.317-0.927,4.072-0.435,6.737c0.567,3.074,1.153,6.252-1.265,7.518c-0.735,0.386-1.261,0.236-1.571,0.042
			c-1.34-0.838-1.348-4.064-1.208-8.89c0.063-2.152,0.157-5.38-0.273-5.889c-0.012,0.009-0.034,0.021-0.063,0.039
			c-1.282,0.809-1.167,3.202-1.065,5.314c0.048,0.985,0.092,1.916,0.008,2.704c-0.029,0.272-0.032,0.686-0.038,1.164
			c-0.025,2.284-0.124,4.071-1.131,4.575c-0.469,0.234-1.015,0.128-1.623-0.315c-2.026-1.479-1.314-4.951-0.625-8.309
			c0.456-2.222,0.927-4.519,0.312-5.392c-0.147-0.209-0.358-0.326-0.664-0.37c-0.456-0.064-0.791,0.014-1.019,0.238
			c-0.898,0.89-0.486,3.989-0.124,6.723c0.444,3.351,0.865,6.375-0.377,7.83c-0.419,0.49-0.991,0.627-1.702,0.627
			C141.647,107.667,141.614,107.667,141.582,107.667z"/>
	</g>
	<rect x="15.667" y="3.667" fill="#F7931E" width="268" height="94"/>
</g>
<g id="Logos">
</g>
<g id="TXT">
</g>
<g id="Guias">
</g>
</svg>
